<svg xmlns="http://www.w3.org/2000/svg" viewBox="0 0 64 64">
  <!-- Favicon escalable: logo constelación en trazo regular sobre fondo
       negro con glifo blanco (preferencia del usuario, sin inversión por
       tema). favicon.ico e icon.tsx siguen el mismo estilo. -->
  <rect width="64" height="64" rx="14" fill="#1b1e23" />
  <g transform="translate(3.4 6.6) scale(1.68)" fill="#eef0f3">
    <path
      d="M8 17 L22 7.5 L26.5 21 L14.5 24.5"
      fill="none"
      stroke="#eef0f3"
      stroke-width="1.5"
      stroke-linecap="round"
      stroke-dasharray="0.6 2.4"
      opacity=".95"
    />
    <path d="M5 18 C3.5 14 8 12 11 14 C14 16 12 20 8.5 20 C7 20 6 19.5 5 18 Z" />
    <path d="M21 7 C20 4 25 3 26 6 C27 9 23 10 22 8.5 C21.5 8 21.2 7.6 21 7 Z" />
    <path d="M25 22 C24 19.5 28 18.5 29 21 C29.6 22.6 27 24 25.7 23 C25.3 22.7 25.1 22.4 25 22 Z" />
    <circle cx="14" cy="25" r="2" />
  </g>
</svg>
